{"title":"Shootout At Wadala 2013 Hindi Movies DVDScr Sample Included New ","uid":8437561,"size":734714934,"categoryP":"video","categoryS":"movies","magnet":"?xt=urn:btih:f63d7cbe4e78028825bfd617f1af23318b6a5a44&amp;dn=Shootout+At+Wadala+2013+Hindi+Movies+DVDScr+Sample+Included+New+&amp;tr=udp%3A%2F%2Ftracker.openbittorrent.com%3A80&amp;tr=udp%3A%2F%2Fopen.demonii.com%3A1337&amp;tr=udp%3A%2F%2Ftracker.coppersurfer.tk%3A6969&amp;tr=udp%3A%2F%2Fexodus.desync.com%3A6969","seeders":0,"leechers":0,"uploader":"basicssom","files":2,"time":1367679611,"description":"Shootout At Wadala 2013 Hindi Movies DVDScr Sample Included New Source ~ â˜»rDXâ˜»\n\nScreen Shots :\n &lt;a href=&quot;\nhttp://myimghosting.serveftp.com/13/ShootoutAtWadala.html&quot; rel=&quot;nofollow&quot; target=&quot;_NEW&quot;&gt;\nhttp://myimghosting.serveftp.com/13/ShootoutAtWadala.html&lt;/a&gt;\n &lt;a href=&quot;\nhttp://myimghost.cwahi.net/ShootoutAtWadala.html&quot; rel=&quot;nofollow&quot; target=&quot;_NEW&quot;&gt;\nhttp://myimghost.cwahi.net/ShootoutAtWadala.html&lt;/a&gt;\n &lt;a href=&quot;\nhttp://users2.jabry.com/myimghost/Shootout%20At%20Wadala/Shootout%20At%20Wadala.jpg&quot; rel=&quot;nofollow&quot; target=&quot;_NEW&quot;&gt;\nhttp://users2.jabry.com/myimghost/Shootout%20At%20Wadala/Shootout%20At%20Wadala.jpg&lt;/a&gt;\n\nFormat                                   : AVI\nFormat/Info                              : Audio Video Interleave\nFile size                                : 691 MiB\nDuration                                 : 2h 10mn\nOverall bit rate                         : 741 Kbps\nWriting library                          : MPlayer\n\nVideo\nID                                       : 0\nFormat                                   : MPEG-4 Visual\nFormat profile                           : Advanced Simple@L5\nFormat settings, BVOP                    : 2\nFormat settings, QPel                    : No\nFormat settings, GMC                     : No warppoints\nFormat settings, Matrix                  : Default (H.263)\nCodec ID                                 : XVID\nCodec ID/Hint                            : XviD\nDuration                                 : 2h 10mn\nBit rate                                 : 608 Kbps\nWidth                                    : 576 pixels\nHeight                                   : 272 pixels\nDisplay aspect ratio                     : 2.118\nFrame rate                               : 25.000 fps\nColor space                              : YUV\nChroma subsampling                       : 4:2:0\nBit depth                                : 8 bits\nScan type                                : Progressive\nCompression mode                         : Lossy\nBits/(Pixel*Frame)                       : 0.155\nStream size                              : 567 MiB (82%)\nWriting library                          : XviD 1.2.1 (UTC 2008-12-04)\n\nAudio\nID                                       : 1\nFormat                                   : AC-3\nFormat/Info                              : Audio Coding 3\nMode extension                           : CM (complete main)\nFormat settings, Endianness              : Big\nCodec ID                                 : 2000\nDuration                                 : 2h 10mn\nBit rate mode                            : Constant\nBit rate                                 : 128 Kbps\nChannel(s)                               : 2 channels\nChannel positions                        : Front: L R\nSampling rate                            : 48.0 KHz\nBit depth                                : 16 bits\nCompression mode                         : Lossy\nStream size                              : 119 MiB (17%)\nAlignment                                : Split accross interleaves\nInterleave, duration                     : 500 ms (12.50 video frames)\nInterleave, preload duration             : 500 ms","torrent":{"xt":"urn:btih:f63d7cbe4e78028825bfd617f1af23318b6a5a44","amp;dn":"Shootout+At+Wadala+2013+Hindi+Movies+DVDScr+Sample+Included+New+","amp;tr":["udp%3A%2F%2Ftracker.openbittorrent.com%3A80","udp%3A%2F%2Fopen.demonii.com%3A1337","udp%3A%2F%2Ftracker.coppersurfer.tk%3A6969","udp%3A%2F%2Fexodus.desync.com%3A6969"],"infoHash":"f63d7cbe4e78028825bfd617f1af23318b6a5a44","infoHashBuffer":{"type":"Buffer","data":[246,61,124,190,78,120,2,136,37,191,214,23,241,175,35,49,139,106,90,68]},"announce":[],"urlList":[]}}